<svg aria-hidden="true" style="position: absolute; width: 0; height: 0; overflow: hidden;" version="1.1" xmlns="http://www.w3.org/2000/svg" xmlns:xlink="http://www.w3.org/1999/xlink">
<defs>
<symbol id="triangle-down" viewBox="0 0 20 20">
<path d="M5 6h10l-5 9-5-9z"></path>
</symbol>
<symbol id="cross" viewBox="0 0 18 18">
<path d="M9 1c-4.418 0-8 3.582-8 8s3.582 8 8 8 8-3.582 8-8-3.582-8-8-8zM9 15c-3.309 0-6-2.691-6-6s2.691-6 6-6 6 2.691 6 6-2.691 6-6 6z"></path>
<path d="M11.722 6.292l-0.014-0.014c-0.371-0.371-0.973-0.371-1.344 0l-1.364 1.364-1.364-1.364c-0.371-0.371-0.973-0.371-1.344 0l-0.014 0.014c-0.371 0.371-0.371 0.973 0 1.344l1.364 1.364-1.364 1.364c-0.371 0.371-0.371 0.973 0 1.344l0.014 0.014c0.371 0.371 0.973 0.371 1.344 0l1.364-1.364 1.364 1.364c0.371 0.371 0.973 0.371 1.344 0l0.014-0.014c0.371-0.371 0.371-0.973 0-1.344l-1.364-1.364 1.364-1.364c0.371-0.371 0.371-0.973 0-1.344z"></path>
</symbol>
<symbol id="plus" viewBox="0 0 18 18">
<path d="M9 1c-4.418 0-8 3.582-8 8s3.582 8 8 8 8-3.582 8-8-3.582-8-8-8zM9 15c-3.309 0-6-2.691-6-6s2.691-6 6-6 6 2.691 6 6-2.691 6-6 6z"></path>
<path d="M12.010 8h-2.010v-2.010c0-0.547-0.443-0.99-0.99-0.99h-0.020c-0.547 0-0.99 0.443-0.99 0.99v2.010h-2.010c-0.547 0-0.99 0.443-0.99 0.99v0.020c0 0.547 0.443 0.99 0.99 0.99h2.010v2.010c0 0.547 0.443 0.99 0.99 0.99h0.020c0.547 0 0.99-0.443 0.99-0.99v-2.010h2.010c0.547 0 0.99-0.443 0.99-0.99v-0.020c-0-0.547-0.443-0.99-0.99-0.99z"></path>
</symbol>
</defs>
</svg>
